<svg xmlns="http://www.w3.org/2000/svg" xmlns:xlink="http://www.w3.org/1999/xlink" viewBox="0 0 2808.32 2800"><defs><linearGradient id="linear-gradient" x1="3764.08" y1="319.95" x2="4625.55" y2="319.95" gradientTransform="translate(-3104.12)" gradientUnits="userSpaceOnUse"><stop offset="0" stop-color="#444b8c"/><stop offset="1" stop-color="#26264f"/></linearGradient><linearGradient id="linear-gradient-2" x1="4934.17" y1="1133.93" x2="4500.65" y2="1866.11" gradientTransform="translate(-3022.49)" gradientUnits="userSpaceOnUse"><stop offset="0" stop-color="#ffc444"/><stop offset="0.31" stop-color="#fba94a"/><stop offset="1" stop-color="#f36f56"/></linearGradient><linearGradient id="linear-gradient-3" x1="5318.19" y1="1147.25" x2="4897.02" y2="1858.56" xlink:href="#linear-gradient-2"/><linearGradient id="linear-gradient-4" x1="2372.37" y1="1691.87" x2="1776.46" y2="2698.3" gradientTransform="matrix(1, 0, 0, 1, 0, 0)" xlink:href="#linear-gradient-2"/><linearGradient id="linear-gradient-5" x1="1838" y1="1718.19" x2="1313.17" y2="2604.57" gradientTransform="matrix(1, 0, 0, 1, 0, 0)" xlink:href="#linear-gradient-2"/><linearGradient id="linear-gradient-6" x1="2228.39" y1="1934.68" x2="1800.52" y2="2657.29" gradientTransform="matrix(1, 0, 0, 1, 0, 0)" xlink:href="#linear-gradient-2"/><linearGradient id="linear-gradient-7" x1="7783.46" y1="1449.6" x2="7752.03" y2="1574.51" gradientTransform="matrix(-1, 0, 0, 1, 9763.79, 0)" gradientUnits="userSpaceOnUse"><stop offset="0" stop-color="#ffc444"/><stop offset="1" stop-color="#f36f56"/></linearGradient><linearGradient id="linear-gradient-8" x1="7252.9" y1="2489.15" x2="7673.51" y2="1384.43" gradientTransform="matrix(-1, 0, 0, 1, 9763.79, 0)" gradientUnits="userSpaceOnUse"><stop offset="0" stop-color="#e38ddd"/><stop offset="1" stop-color="#9571f6"/></linearGradient><linearGradient id="linear-gradient-9" x1="2577.47" y1="2649.89" x2="2638.16" y2="2649.89" gradientTransform="matrix(1, 0.03, -0.03, 1, -182.87, -143.24)" xlink:href="#linear-gradient"/><linearGradient id="linear-gradient-10" x1="3023.52" y1="2873.61" x2="3050.15" y2="2818.5" gradientTransform="matrix(0.99, 0.12, -0.12, 0.99, -297.03, -641.54)" xlink:href="#linear-gradient-7"/><linearGradient id="linear-gradient-11" x1="3275.65" y1="3160.22" x2="3340.12" y2="3160.22" gradientTransform="matrix(0.96, 0.27, -0.27, 0.96, -220.61, -1360.53)" xlink:href="#linear-gradient"/><linearGradient id="linear-gradient-12" x1="3038.56" y1="3030.25" x2="3065.75" y2="2973.97" gradientTransform="translate(-240.21 -1006.72) rotate(11.41)" xlink:href="#linear-gradient-7"/><linearGradient id="linear-gradient-13" x1="7642.62" y1="2449.98" x2="7470.65" y2="2062.3" gradientTransform="matrix(-1, 0, 0, 1, 9763.79, 0)" xlink:href="#linear-gradient"/><linearGradient id="linear-gradient-14" x1="7642.62" y1="2449.98" x2="7470.65" y2="2062.3" gradientTransform="matrix(-1, 0, 0, 1, 9763.79, 0)" xlink:href="#linear-gradient"/><linearGradient id="linear-gradient-15" x1="7039.99" y1="2785.82" x2="6868.02" y2="2398.17" gradientTransform="matrix(-0.99, -0.12, -0.12, 0.99, 9554.1, 575.2)" xlink:href="#linear-gradient"/><linearGradient id="linear-gradient-16" x1="438.72" y1="1440.57" x2="1044.45" y2="1852.01" gradientTransform="translate(1814.31)" gradientUnits="userSpaceOnUse"><stop offset="0" stop-color="#311944"/><stop offset="1" stop-color="#6b3976"/></linearGradient><linearGradient id="linear-gradient-17" x1="7298.58" y1="2196.55" x2="7535.6" y2="1574" xlink:href="#linear-gradient-8"/><linearGradient id="linear-gradient-18" x1="7301.82" y1="2187.2" x2="7505.15" y2="1653.16" xlink:href="#linear-gradient-8"/><linearGradient id="linear-gradient-19" x1="9327.21" y1="964.48" x2="9333.4" y2="799.58" gradientTransform="matrix(-0.98, 0.18, 0.18, 0.98, 11361.87, -945.5)" xlink:href="#linear-gradient-7"/><linearGradient id="linear-gradient-20" x1="9325.28" y1="818.91" x2="9322.63" y2="1032.41" gradientTransform="matrix(-0.98, 0.18, 0.18, 0.98, 11361.87, -945.5)" xlink:href="#linear-gradient-7"/><linearGradient id="linear-gradient-21" x1="7466.71" y1="1823.85" x2="7447.56" y2="1938.77" gradientTransform="matrix(-1, 0, 0, 1, 9763.79, 0)" gradientUnits="userSpaceOnUse"><stop offset="0" stop-color="#ffc444"/><stop offset="0.23" stop-color="#fcb048"/><stop offset="1" stop-color="#f36f56"/></linearGradient><linearGradient id="linear-gradient-22" x1="7131.55" y1="2310.01" x2="7495.85" y2="1353.17" xlink:href="#linear-gradient-8"/><linearGradient id="linear-gradient-23" x1="9884.16" y1="3396.63" x2="9921.99" y2="3430.28" gradientTransform="matrix(-0.99, -0.14, -0.14, 0.99, 11537.02, 739.5)" xlink:href="#linear-gradient"/><linearGradient id="linear-gradient-24" x1="9770.52" y1="2985.93" x2="9770.52" y2="2920.02" gradientTransform="matrix(-1, 0.05, 0.05, 1, 10844.5, -721.95)" xlink:href="#linear-gradient-7"/><linearGradient id="linear-gradient-25" x1="9887.96" y1="3392.35" x2="9925.8" y2="3426" gradientTransform="matrix(-0.99, -0.14, -0.14, 0.99, 11537.02, 739.5)" xlink:href="#linear-gradient"/><linearGradient id="linear-gradient-26" x1="10059.99" y1="2760.75" x2="10097.82" y2="2794.41" gradientTransform="matrix(-1, 0, 0, 1, 11583.18, 0)" xlink:href="#linear-gradient"/><linearGradient id="linear-gradient-27" x1="9901.35" y1="2272.24" x2="9901.35" y2="2206.33" gradientTransform="matrix(-0.98, 0.19, 0.19, 0.98, 10763.75, -1340.22)" xlink:href="#linear-gradient-7"/><linearGradient id="linear-gradient-28" x1="10063.79" y1="2756.48" x2="10101.62" y2="2790.13" gradientTransform="matrix(-1, 0, 0, 1, 11583.18, 0)" xlink:href="#linear-gradient"/><linearGradient id="linear-gradient-29" x1="7656.57" y1="2396.59" x2="7812.9" y2="2396.59" gradientTransform="matrix(-1, 0, 0, 1, 8974.11, 0)" xlink:href="#linear-gradient-16"/><linearGradient id="linear-gradient-30" x1="7656.57" y1="2396.59" x2="7800.17" y2="2396.59" gradientTransform="matrix(-1, 0, 0, 1, 8974.11, 0)" xlink:href="#linear-gradient-16"/><linearGradient id="linear-gradient-31" x1="7945.76" y1="2503.58" x2="7515.7" y2="2425.98" gradientTransform="matrix(-1, 0, 0, 1, 8974.11, 0)" gradientUnits="userSpaceOnUse"><stop offset="0" stop-color="#311944"/><stop offset="0.74" stop-color="#5c3169"/><stop offset="1" stop-color="#6b3976"/></linearGradient><linearGradient id="linear-gradient-32" x1="7306.03" y1="1766.3" x2="7282.9" y2="1871.87" gradientTransform="matrix(-1, 0, 0, 1, 8974.11, 0)" xlink:href="#linear-gradient-7"/><linearGradient id="linear-gradient-33" x1="10959.47" y1="666.25" x2="11126.3" y2="876.14" gradientTransform="matrix(-0.97, 0.26, 0.26, 0.97, 11792.96, -1944.84)" xlink:href="#linear-gradient-7"/><linearGradient id="linear-gradient-34" x1="10938.73" y1="619.55" x2="11125" y2="853.9" gradientTransform="matrix(-0.97, 0.26, 0.26, 0.97, 11792.96, -1944.84)" xlink:href="#linear-gradient-7"/><linearGradient id="linear-gradient-35" x1="7416.25" y1="1860.61" x2="7683.69" y2="2115.99" gradientTransform="matrix(-1, 0, 0, 1, 8974.11, 0)" gradientUnits="userSpaceOnUse"><stop offset="0" stop-color="#ff9085"/><stop offset="1" stop-color="#fb6fbb"/></linearGradient></defs><title>Asset 1</title><g style="isolation:isolate"><g id="Layer_2" data-name="Layer 2"><g id="Illustration"><path d="M1906.83,59.28c-210-46.86-428.4-69.32-641.91-55C1075.68,17,861.17,51.6,708.88,175.65,636.31,234.76,549.77,341,526,434.7c0,0-125,493.27-374.86,599s-423.44,1909.67,1471.65,1733.5c0,0,1113.07-46.16,1180.09-1375.85,16.19-321.21,7.14-674.33-186.81-942.92C2467.48,242.58,2259.24,151.07,2020,87Q1963.88,72,1906.83,59.28Z" style="fill:#f8f3ed"/><path d="M1934,1780.44c-126.21,69.43-300.07,45.92-398.6-94-55.18-78.38-90.25-188.89-110.27-281.73-124.5-577.44,205.6-240,195.3-594S1622,222.28,2075.74,99.09c0,0,406.82-123.19,274.84,376.53-24.19,91.58-60.34,182.56-119.33,257.56C2169.26,812,2087,871.1,2010.17,934.32c-91.89,75.66-27.93,201.21,6.61,290,42.92,110.38,85.09,222.26,65.29,342.75C2065.64,1667,2008,1739.72,1934,1780.44Z" style="fill:#ffa938"/><g style="opacity:0.8;mix-blend-mode:soft-light"><path d="M1810.83,1765.93a3.69,3.69,0,0,1-3.57-2.72c-.62-2.24-62-227.16-74.78-485.14-7.54-151.65,2.9-284.93,31-396.13,35.27-139.39,98.59-244.35,188.22-312a3.7,3.7,0,1,1,4.46,5.91c-200.12,151-228.09,465-216.32,701.81,12.79,257.18,73.91,481.31,74.53,483.55a3.7,3.7,0,0,1-3.57,4.68Z" style="fill:#fff"/></g><path d="M1741.08,1990.24c-17.24-2.43-33.09-14.34-46.35-39.44-55.08-104.18,47.85-261.93,50-371.36,2.22-110-21.91-217.3-48.6-323.12-27.53-109.14-41.68-225.13,33.21-319.3,64.57-81.21,175.36-143.09,276.09-82.89,186.57,111.48,181.65-75,213.9-200.71,37.12-144.74,199.25-312.88,360.16-281.95,144.3,27.73,203.79,232.19,203.84,359,0,66.2-24.35,167.29-75.15,214.85-116.93,109.46-381.82,108.71-279.51,320.87,34.5,71.53,66.92,148.09,1.47,213.35-67.05,66.85-177.9,72.71-261.72,106.21-95.34,38.11-159.85,116.34-217.64,197.81C1922.75,1823.13,1818,2001.05,1741.08,1990.24Z" style="fill:#029cc5"/><g style="opacity:0.8;mix-blend-mode:soft-light"><path d="M1731.08,1957.13a3.59,3.59,0,0,1-1-.22,3.7,3.7,0,0,1-2.21-4.74c.83-2.29,84.61-232.42,211.75-494.86,74.7-154.18,149.52-289.2,222.41-401.3,91.21-140.31,179.67-245,262.92-311.09a3.7,3.7,0,0,1,4.6,5.8c-187.27,148.74-366.16,468.1-483.26,709.81-127,262.1-210.63,491.87-211.46,494.16A3.73,3.73,0,0,1,1731.08,1957.13Z" style="fill:#fff"/></g><path d="M291.58,285.46l-58.16-3.37c-36.85-1.8-70,38.42-70,72.18V2414.49c0,46.83,47.83,56.26,84.68,52.49l43.5-4.44Z" style="fill:#029cc5"/><path d="M1859.68,358.28,256.58,279.42c-36.85-1.81-66.87,24.3-66.87,58.33V2414.07c0,34,30,58.52,66.87,54.73l1603.1-165c29-3,52.34-29.69,52.34-59.66v-1829C1912,385.16,1888.64,359.71,1859.68,358.28Z" style="fill:#d8dee8"/><path d="M256.58,2440.64c-19.88,2-36.09-11.27-36.09-29.61V339.13c0-18.34,16.21-32.49,36.09-31.55l1603.1,75.72c15.65.74,28.36,14.54,28.36,30.76V2246.5c0,16.22-12.71,30.7-28.36,32.28Z" style="fill:#71cde6"/><polygon points="1756.36 2229.64 385.21 2361.75 385.21 450.24 1756.36 501.88 1756.36 2229.64" style="fill:#fff"/><path d="M1207.94,511.23l-548,6.86,12.29-123.58c.93-16.06,12.54-29.24,27.82-31.59l92.8-14.26A33.37,33.37,0,0,0,818,329.39l10.07-21.86,242.74,15Z" style="fill:#97a6b7;opacity:0.30000000000000004;mix-blend-mode:multiply"/><path d="M1500.57,431.06a29.32,29.32,0,0,0-27.92-24.43l-87.56-3.92c-39.74-1.78-68.88-34.07-67.42-75l3.38-94.77c.63-17.52-11.89-31.57-29.09-32.59l-28.77-1.72c-21.94-1.31-36.54-20.65-33.47-43,5.38-39.08-21.39-72.81-60.2-75.45-39.11-2.67-75.61,27.21-81.44,66.79a44,44,0,0,1-6.08,16.88c-9,14.5-24.87,22.48-40.38,21.55l-29.68-1.77c-18-1.07-35.07,11.55-39.62,29.31l-24.68,96.19C937,350.75,896.72,380.82,854,378.9l-96.06-4.3c-15.73-.71-31.17,8.46-38.41,22.84L661.63,512.29c-4.74,9.4,1.1,19.56,11.43,19.91l833,27.67c9.11.3,16.85-8.79,15.17-17.83ZM1157.71,162.22c-11.47-.71-19.43-10.68-17.77-22.28s12.34-20.38,23.81-19.63,19.36,10.71,17.7,22.27S1169.17,162.93,1157.71,162.22Z" style="fill:url(#linear-gradient)"/><path d="M1505.5,433.63a29.32,29.32,0,0,0-27.91-24.43L1390,405.28c-39.75-1.79-68.88-34.07-67.42-75l3.38-94.77c.62-17.52-11.9-31.57-29.1-32.59l-28.77-1.72c-21.93-1.31-36.54-20.65-33.46-43,5.37-39.08-21.4-72.81-60.21-75.45-39.11-2.67-75.61,27.21-81.43,66.79a44,44,0,0,1-6.09,16.88c-9,14.5-24.87,22.48-40.38,21.55l-29.67-1.77c-18-1.07-35.07,11.55-39.63,29.3l-24.67,96.2c-10.67,41.6-50.93,71.67-93.67,69.75l-96-4.3c-15.73-.71-31.17,8.46-38.42,22.83L666.56,514.86c-4.74,9.4,1.1,19.56,11.43,19.91l833,27.66c9.12.31,16.85-8.78,15.18-17.82ZM1162.65,164.79c-11.48-.71-19.44-10.69-17.77-22.28s12.33-20.38,23.8-19.63,19.37,10.71,17.7,22.27S1174.1,165.5,1162.65,164.79Z" style="fill:#97a6b7"/><path d="M1363,486.41c-74.3-45.87-131.31-13.35-177.62-65.08-49.57-55.39-16.14-128.29-67.43-162.7-32.84-22-62.13-2.6-100.33-8.56-14-2.18-28.9-7.74-44.41-18.58l-20.58,80.23c-10.67,41.6-50.93,71.66-93.67,69.75l-96-4.3c-15.73-.71-31.17,8.46-38.42,22.84L666.56,514.86c-4.74,9.4,1.1,19.56,11.43,19.91l757,25.14C1415.92,529.63,1392.24,504.48,1363,486.41Z" style="fill:#fff;opacity:0.5;mix-blend-mode:soft-light"/><path d="M716.19,1343.13v128.23L604,1474.78V1345.21l112.2-2.08Zm13.75-14-139.71,2.6V1489l139.71-4.27V1329.11Z" style="fill:#d8dee8"/><polygon points="1649.34 1456.6 781.3 1483.13 781.3 1328.16 1649.34 1312.02 1649.34 1456.6" style="fill:#d8dee8"/><path d="M716.19,1570.07v128.21L604,1703.67V1574.11l112.2-4Zm13.75-14.26-139.71,5V1718.1l139.71-6.7V1555.81Z" style="fill:#d8dee8"/><polygon points="1649.34 1667.27 781.3 1708.93 781.3 1553.96 1649.34 1522.68 1649.34 1667.27" style="fill:#d8dee8"/><path d="M716.19,1797v128.19L604,1932.55V1803l112.2-6Zm13.75-14.51L590.23,1790v157.26l139.71-9.14V1782.51Z" style="fill:#d8dee8"/><polygon points="1649.34 1877.93 781.3 1934.73 781.3 1779.76 1649.34 1733.35 1649.34 1877.93" style="fill:#d8dee8"/><path d="M716.19,2024v128.16l-112.2,9.3v-129.5l112.2-8Zm13.75-14.76-139.71,9.9v157.26l139.71-11.58V2009.21Z" style="fill:#d8dee8"/><polygon points="1649.34 2088.59 781.3 2160.54 781.3 2005.56 1649.34 1944.01 1649.34 2088.59" style="fill:#d8dee8"/><polygon points="1649.34 740 585.1 715.16 585.1 622.71 1649.34 652.52 1649.34 740" style="fill:#d8dee8"/><polygon points="1649.34 934.42 585.1 920.61 585.1 874.39 1649.34 890.67 1649.34 934.42" style="fill:#d8dee8"/><polygon points="1649.34 1006.51 585.1 996.8 585.1 950.57 1649.34 962.77 1649.34 1006.51" style="fill:#d8dee8"/><polygon points="1649.34 1078.61 585.1 1072.99 585.1 1026.76 1649.34 1034.86 1649.34 1078.61" style="fill:#d8dee8"/><path d="M610.68,1495.7a13,13,0,0,1-7.83-1.79l-65.17-39.54c-6.09-3.7-7.45-11.58-3-17.6s12.93-7.85,19-4.14l55.24,33.77,153.92-170.61c4.75-5.27,12.8-6,18-1.69s5.53,12.08.8,17.34l-161,179.4A14.83,14.83,0,0,1,610.68,1495.7Z" style="fill:#97a6b7"/><path d="M619,1739.09a12.75,12.75,0,0,1-7.81-1.51l-65-37.2c-6.08-3.48-7.44-11.31-3-17.47s12.89-8.3,18.94-4.81l55.1,31.79,153.55-175.83c4.74-5.43,12.77-6.46,17.93-2.32s5.52,11.87.8,17.3L628.85,1733.89A15.46,15.46,0,0,1,619,1739.09Z" style="fill:#97a6b7"/><path d="M610.68,1969.61a12.58,12.58,0,0,1-7.83-1.25l-65.17-35.07c-6.09-3.29-7.45-11.07-3-17.39s12.93-8.74,19-5.45l55.24,30,153.92-181.17c4.75-5.59,12.8-6.89,18-2.92s5.53,11.7.8,17.29l-161,190.44A16.09,16.09,0,0,1,610.68,1969.61Z" style="fill:#97a6b7"/><path d="M610.68,2166a12.44,12.44,0,0,1-7.83-1l-65.17-33.22c-6.09-3.11-7.45-10.86-3-17.31s12.93-9.1,19-6l55.24,28.42,153.92-185.55c4.75-5.73,12.8-7.26,18-3.43s5.53,11.54.8,17.26l-161,195A16.73,16.73,0,0,1,610.68,2166Z" style="fill:#97a6b7"/><polygon points="1909.93 1740.56 1541.39 1760.52 1541.39 1155.63 1909.93 1087.44 1909.93 1740.56" style="fill:url(#linear-gradient-2)"/><polygon points="2375.26 1724.21 1909.93 1740.56 1909.93 1087.44 2375.26 1150.19 2375.26 1724.21" style="fill:url(#linear-gradient-3)"/><polygon points="2469.45 1686.86 2469.45 2447.06 1843.2 2541.22 1843.52 1665.97 1843.52 1665.9 2469.45 1686.86" style="fill:url(#linear-gradient-4)"/><polygon points="1842.62 1665.89 1842.62 2541.23 1351.01 2453.82 1351.01 1709.81 1494.7 1697.02 1695.28 1679.07 1842.62 1665.89" style="fill:url(#linear-gradient-5)"/><polygon points="1696.23 1679.09 1696.23 1822.77 1493.19 1826.95 1493.19 1696.98 1696.23 1679.09" style="fill:#fff;mix-blend-mode:soft-light"/><path d="M2469.45,2413.44v33.62l-626.56,94.16L1843,1666c6.44,2.07,119,39.6,137.94,171,10.91,75.52,13,165.84,58.63,230.56,62.07,87.93,188.54,61.88,256.26,138.22,20.89,23.54,34.8,51.69,44.35,81.53,19.1,59.41,4.89,113.93,82.62,121.8C2436.9,2410.5,2452.25,2411.47,2469.45,2413.44Z" style="opacity:0.2;mix-blend-mode:multiply;fill:url(#linear-gradient-6)"/><polygon points="2338.13 1272.54 2208.13 1263.67 2208.13 1165.92 2338.13 1177.76 2338.13 1272.54" style="fill:#fff"/><polygon points="2406.51 1883.18 2270.13 1879.05 2270.13 1770.3 2406.51 1781.78 2406.51 1883.18" style="fill:#fff"/><path d="M1989.5,1513.37s-6.64-13.3,0-29.91,6.65-43.21,10-53.18c.81-2.41.64-3.84-.12-4.41-1.56-1.16-8.74,8.39-13.17,17.7-7.86,16.52-5.68,29.1-10,29.92-4.8.91-10.17-14.3-13.29-13.3-2.42.78,0,10.58,0,19.94,0,6.65,16.61,39.88,16.61,39.88Z" style="fill:url(#linear-gradient-7)"/><path d="M2351.81,1657.09c.79-16.28,2.54-51.85-17.14-64.25-26-16.39-64.24,23.47-107.09,34.27-45,11.35-117.75-3.74-235.6-132.8l-21.42,21.42c12.17,42.82,43.41,127,124.23,188.48,18.87,14.34,133.49,101.47,205.61,55.69C2335.76,1737.45,2350.2,1689.85,2351.81,1657.09Z" style="fill:url(#linear-gradient-8)"/><path d="M2372.82,2567.92c3.32,2.7,3.93,9.44,4.33,13.84a10.8,10.8,0,0,1,0,3.65c-1.6,5.07-11.43,5.6-26.84,7.17-24.36,2.49-31.61,4.41-33.51.78-1.79-3.39,2.53-9,3-9.57,2.62-3.3,5.83-4.5,12-6.54,11.49-3.78,19.26-5.85,21.61-6.48C2368.19,2566.85,2370.64,2566.15,2372.82,2567.92Z" style="fill:url(#linear-gradient-9)"/><path d="M2358.34,2545.67l-2.44,27.76c.69,1.34,8.94,5.36,15.49,1.91l6.27-27.28Z" style="fill:url(#linear-gradient-10)"/><path d="M2159.91,2555.65c4,4.39,4.88,12.48,1.42,16.47s-8.51,1-23,1.41c-15.53.46-19.59,4.13-30.14,1.22-4.26-1.18-11.79-4-11.65-7.08.1-2.14,3.93-3.25,16.74-7.54,18.17-6.09,18.09-6.42,21.95-7.06C2144.92,2551.46,2154.65,2549.85,2159.91,2555.65Z" style="fill:url(#linear-gradient-11)"/><path d="M2150,2530.32l-7.79,25.91c.59,1.39,8.5,6,15.3,3.09l11.57-25.15Z" style="fill:url(#linear-gradient-12)"/><path d="M2219.17,1962.82a2427.89,2427.89,0,0,1-21.32,291.37,2427.09,2427.09,0,0,1-55.38,283.67l29.81,8c25.22-23.52,57-60.53,72.37-112.83,9.53-32.46,6.36-49.14,12.4-89.07,9.62-63.57,29.11-96.88,49.25-148.14,18.1-46.07,39.49-113.68,51-204Z" style="fill:url(#linear-gradient-13)"/><path d="M2219.17,1962.82c27.14,20.7,60.88,53.33,59.81,92.65-.79,29.17-20,34.54-34.26,77.1-17.5,52.19,3.82,66.69-8.57,132.79-9.22,49.2-20.55,38.59-34.27,98.53-12.22,53.37-6.79,77.29-25.7,119.94a230.37,230.37,0,0,1-33.71,54l29.81,8c25.22-23.52,57-60.53,72.37-112.83,9.53-32.46,6.36-49.14,12.4-89.07,9.62-63.57,29.11-96.88,49.25-148.14,18.1-46.07,39.49-113.68,51-204Z" style="opacity:0.30000000000000004;mix-blend-mode:multiply;fill:url(#linear-gradient-14)"/><path d="M2328.66,1963.22q9.12,166.12,14.86,338.38,4.26,129.22,6.31,255.16l30.45,3.76a354.68,354.68,0,0,0,31.77-82c10.85-43.47,8.34-69.28,13.09-114.33,5.34-50.53,13.09-61.53,26.82-125.27,27.86-129.36,41.79-194,10.72-234.27C2452.6,1991.62,2421,1958.85,2328.66,1963.22Z" style="fill:url(#linear-gradient-15)"/><path d="M2286.31,1659.42c-11.39-7.38-1-28.88-.4-75,.75-56.57-14.27-67.11-2.2-89.3,14.75-27.14,51.9-38.37,76.51-38.9,5.43-.12,6.7-3.08,52.17,8.69,81.92,21.22,102.43-1.52,139.12,21.19,35.45,22,19.92,46,54.35,71.74,55.79,41.73,114.46-3.39,154.33,31.52,37.72,33,38.59,117.13-1.08,163-45,52-126.07,36.41-180.43,26.09-11.43-2.17-69.2-14.3-129.34-58.69a344.34,344.34,0,0,1-70.64-70.11c-3.42-3.84-8.74-8.49-15.76-9.24-8.44-.9-15.22,4.26-18.48,6.52C2327.31,1658.8,2297.5,1666.68,2286.31,1659.42Z" style="fill:url(#linear-gradient-16)"/><path d="M2327.7,1598.29s95.17-27.75,137.08,19.69c6.52,7.39,13.14,18.27,18.2,42.28,17.79,84.24-29.55,114.25-23.08,190.69.74,8.76,9,92.81,70,144.47,29,24.57,62.11,35.13,61.29,56.91-.58,15.68-18.46,30-35,35-31.68,9.67-50.16-17-91.94-26.27-43.66-9.65-53.77,12.8-122.58,21.89-22.9,3-127.43,16.83-153.23-26.27-11-18.34,2.56-29.86,21.89-105.07,2-7.6,35.43-139.77,25.3-197.36-.88-5-3.84-25.23-3-52.08a126.29,126.29,0,0,1,3-22.91s8.09-37.52,37.27-69.73C2277.11,1604.93,2282.1,1600.11,2327.7,1598.29Z" style="fill:url(#linear-gradient-17)"/><g style="opacity:0.2;mix-blend-mode:multiply"><path d="M2464.78,1618c9.59-.11,17.08,36.93,18.2,42.28,17.79,84.24-29.55,114.25-23.08,190.69.74,8.76,9,92.81,70,144.47,29,24.57,62.11,35.13,61.29,56.91-.58,15.68-18.46,30-35,35-31.68,9.67-50.16-17-91.94-26.27-43.66-9.65-53.77,12.8-122.58,21.89-22.9,3-127.43,16.83-153.23-26.27-2.66-4.45-3.67-6.4-3.4-8.3,2.88-20.94,99.66-1.89,123.91-40.06,23.7-37.3-37.7-104.23-17.14-124.23,16.07-15.62,57,21.79,90,4.29,20.66-11,24.06-36.08,34.27-90C2434,1703.84,2450.22,1618.14,2464.78,1618Z" style="fill:url(#linear-gradient-18)"/></g><path d="M2358.26,1536.56c-1.29,6-7.85,38.33,5.37,46.65,2.86,1.8,8.37,2.83,19.38,4.9,7.21,1.35,13.26,2.18,17.53,2.69a44.21,44.21,0,0,1-8.7,22.26c-17.53,22.48-52.67,16.66-57.68,15.75-17.68-3.22-35.07-8.68-39.28-12-6.39-5.08-11.42-8.89-14.4-12.77,6.84-3.3,20.66-12,29.92-14.88a171.63,171.63,0,0,1,19.35-4.74q1.45-9.36,2.92-18.72Z" style="fill:url(#linear-gradient-19)"/><path d="M2358.87,1552.67s-2.38,23.67-25.4,27.85c-20.61,3.73-36.12-46.07-25.58-59,3.52-4.3,12.21-8.38,19.74-8.17,5.29.16,23.18,7,25.67,24.86,3.57-3.75,8-4.83,10.19-3.26,2.78,2,1.29,7.79,1,9.11A16.59,16.59,0,0,1,2358.87,1552.67Z" style="fill:url(#linear-gradient-20)"/><path d="M2322.23,1937l-64.18-158.93a19.93,19.93,0,0,1,12.42-26.45l127-40.56a15.23,15.23,0,0,1,17.57,9.3l65.63,167.54a15.24,15.24,0,0,1-9.94,20.19l-130.16,37.77A15.23,15.23,0,0,1,2322.23,1937Z" style="fill:#26264f"/><path d="M2330.39,1845.57s-12.85-8.57-12.85-17.13S2309,1807,2304.69,1807s-4.29,4.28,0,12.85-17.14,4.28-25.71-4.29-17.13-8.56-12.85-4.28c6.78,6.77,8.57,12.85,8.57,12.85s8.57,34.27,46.05,32.13Z" style="fill:url(#linear-gradient-21)"/><path d="M2420.34,1601.4c27.41-12.22,73.25,38.18,81.39,47.12,43.18,47.47,104.45,155.08,55.69,218.47-40.68,52.88-149.9,64.53-239.88-4.29l12.85-25.7c9.34,3.39,70.78,24.66,115.65-8.56,9.52-7,24.16-17.89,25.71-34.27,2.87-30.53-43.52-39.94-64.26-85.68C2389.13,1668,2396.72,1612,2420.34,1601.4Z" style="fill:url(#linear-gradient-22)"/><path d="M1217.68,1358.28c-131,203.33-404.24,257.83-612.33,116.31-212.42-144.47-271.26-433.93-129.44-640.77C615.52,630.2,893.49,589.58,1095,737.48,1292.57,882.44,1346.69,1158,1217.68,1358.28Z" style="fill:#333;opacity:0.15"/><path d="M47.2,2328.46l-12.87-8c-20.52-12.76-26.12-39.73-12.47-60.2l535-802.58L639,1513.52,108.72,2314.46C95.19,2334.88,67.66,2341.17,47.2,2328.46Z" style="fill:#333"/><path d="M1242.39,1389.09c-150,233.91-464,297.8-704,135.55-245.78-166.16-313.92-500.46-149.55-739,161.41-234.28,481.65-279.8,713-109.11C1327.89,843.3,1389.78,1159.22,1242.39,1389.09Zm-65.74-46.48C1301.5,1149,1249.13,882.49,1058,742.42,863.18,599.61,594.65,639.09,459.9,835.84c-136.82,199.77-80,479.23,125,618.84C785.82,1591.54,1050,1539.1,1176.65,1342.61Z" style="fill:#333"/><path d="M556.82,1457.69,488.61,1560c17.56,34.12,19.07,60.7,15.16,80.84-14.69,75.77-110.11,84.58-159,199.45-24.56,57.65-4.7,65.21-32.12,113.88-45.33,80.45-105.18,69.65-144.76,141.5-40,72.68-3.72,128.92-39,154.8-15.1,11.07-42.33,15.82-95.78-7l-11.19,16.78c-13.65,20.47-8.06,47.44,12.47,60.2l12.87,8c20.46,12.71,48,6.42,61.52-14L639,1513.52Z" style="fill:#333;opacity:0.30000000000000004;mix-blend-mode:multiply"/><path d="M1271.36,1396.23c-150,233.91-464,297.8-704,135.55-245.77-166.16-313.91-500.46-149.54-739,161.4-234.28,481.65-279.8,713-109.11C1356.87,850.44,1418.76,1166.36,1271.36,1396.23Zm-65.73-46.48c124.85-193.62,72.48-460.11-118.63-600.19C892.15,606.75,623.63,646.23,488.88,843c-136.82,199.77-80.05,479.22,125,618.84C814.8,1598.68,1078.93,1546.24,1205.63,1349.75Z" style="fill:#4d4d4d"/><path d="M1248.16,1379.83C1106.38,1600.5,810,1660.3,583.83,1507,352.54,1350.22,288.43,1035.37,443,810.55c152-221,453.88-264.45,672.34-103.64C1329.09,864.26,1387.63,1162.75,1248.16,1379.83Zm-42.53-30.08c124.85-193.62,72.48-460.11-118.63-600.19C892.15,606.75,623.63,646.23,488.88,843c-136.82,199.77-80.05,479.22,125,618.84C814.8,1598.68,1078.93,1546.24,1205.63,1349.75Z" style="fill:#666"/><path d="M1263.56,2736.17c-1.08-5.93-20.23-11.3-29.72-3.35-4.71,3.94-7.95,11.94-5.22,15.55,1,1.31-3.07,3.62.82,3.67C1242.34,2752.19,1264.63,2742.07,1263.56,2736.17Z" style="fill:url(#linear-gradient-23)"/><path d="M1242.61,2736.21l-19.87,1c6.89-12.52-1.39-46.56-1.39-46.56l21.46.63s-.53,9.88-1.84,24.56C1240.52,2720.86,1241.35,2728.43,1242.61,2736.21Z" style="fill:url(#linear-gradient-24)"/><path d="M1245.23,2735.91s-23.72-5.47-26.28-.76-4.56,17.3,10.49,16.89S1246.56,2739.9,1245.23,2735.91Z" style="fill:url(#linear-gradient-25)"/><path d="M1515.06,2779.19c-1.89-5.72-21.61-8.35-29.89.84-4.11,4.56-6.2,12.93-3,16.13,1.17,1.16-2.53,4,1.33,3.52C1496.3,2798,1517,2784.88,1515.06,2779.19Z" style="fill:url(#linear-gradient-26)"/><path d="M1491.76,2784.7l-19.52,3.83c5-13.37-8-45.87-8-45.87l21.32-2.45s.9,9.85,1.71,24.57C1487.49,2769.82,1489.4,2777.19,1491.76,2784.7Z" style="fill:url(#linear-gradient-27)"/><path d="M1496.88,2781.49s-24.25-2.09-26.13,2.93-2.09,17.76,12.75,15.26S1498.76,2785.25,1496.88,2781.49Z" style="fill:url(#linear-gradient-28)"/><path d="M1317.53,2097.6q-8,136.35-22.79,283.26c-11.61,113.34-25.73,221.63-41.55,324.55-19.51,6.69-37.54,0-37.54,0s-22.81-37.36-40.22-136.65c-11.16-63.71-11.93-62.91-12.06-74-.63-56.07,19-72.3,22.79-122.42,3.47-46.36-11.29-60.25-20.11-112.45-6.78-40.14-9.32-98.63,12.07-175.08Z" style="fill:url(#linear-gradient-29)"/><path d="M1317.53,2097.6q-8,136.35-22.79,283.26c-11.61,113.34-25.73,221.63-41.55,324.55-19.51,6.69-37.54,0-37.54,0,.25-9.52.91-23.88,2.9-41.22,5.28-46,13.69-59.08,14.55-87.3,1.11-36.1-12-37.21-14.55-72.76-4-55.1,26.25-68.16,29.11-116.41,3-51-28.9-67.75-53.36-130.95-14.43-37.32-27.24-93.34-16.18-172Z" style="opacity:0.30000000000000004;mix-blend-mode:multiply;fill:url(#linear-gradient-30)"/><path d="M1415.39,2094.75a1904.15,1904.15,0,0,1,67,331.67,1917.58,1917.58,0,0,1,8,330.24l-25.47,7.11c-49.36-51.65-67-99.13-73.73-133.8-10-51.29,5-68.69-8-126.69-3-13.34-7.25-27.67-56.3-123.84-46.82-91.78-56.42-105.11-64.35-138.07-11.32-47-8.33-88.78-4-116.73Z" style="fill:url(#linear-gradient-31)"/><path d="M1625.92,1900.28,1709.69,1704a17.25,17.25,0,0,0-11.79-23.54l-153.46-37.26a17.24,17.24,0,0,0-20,10.24l-77.06,188.61a17.25,17.25,0,0,0,10.92,23L1605,1910A17.26,17.26,0,0,0,1625.92,1900.28Z" style="fill:#26264f"/><path d="M1622.12,1890.84l78.26-183.31a16.11,16.11,0,0,0-11-22L1546,1650.73a16.11,16.11,0,0,0-18.72,9.57l-72,176.18a16.11,16.11,0,0,0,10.2,21.5l137.07,41.94A16.11,16.11,0,0,0,1622.12,1890.84Z" style="fill:#f4f7fa"/><path d="M1670.43,1837l2.52-23.12,13.32-25.4a24.08,24.08,0,0,0,2.76-11.21V1752l-16.08,37.2s-10.56-9.55-14.58-11.56-3.52,6-.5,9-1.51,27.65,1.5,30.16l-1,15.08Z" style="fill:url(#linear-gradient-32)"/><path d="M1542.75,1689.66c-12.51-30.59-39.37-48.19-53.29-57.31-33-21.59-54-17.65-129.7-29.16-100.83-15.34-112.9-29.88-146.79-18.09-44.51,15.47-67.77,55.88-78.42,74.4-53.72,93.35,9.08,140.8-7,326.76-6.58,75.94-23.47,141.94,17.09,181,8.54,8.22,18.1,12.52,37.2,21.11,75.78,34.1,143.72,28.22,185,24.13,45.43-4.49,68.39-7.07,80.43-23.12,19.24-25.64-.56-58.22-4-114.62-2.48-40.49,6.72-72.57,25.14-136.73C1511.15,1788.82,1566.71,1748.27,1542.75,1689.66Z" style="fill:#0071bc"/><path d="M1374,1548.17c4.59-16.36-3.44-31.5-5.2-34.77-7.41-13.66-9.31-15.53-12.84-17.89l-4.91-3-.59-.23c-3.15-1.12-13.89-1.44-16.07-1-6.95,1.49-14.35,29.81-12.24,69.86-.29,1.52-.57,3.06-.84,4.61q-1.63,9.49-2.64,18.59c-.64,5.79-8.86,5.66-14.68,5.29-23.63-1.51-35.19.5-36.19,4-1.89,6.6,26.14,28.15,60.74,33,46.44.35,84.22-4.6,80.16-11.91-1.8-3.25-37.78-12.65-47.91-22-9.26-8.53-8.51-17.34-9.27-23.65C1354.3,1567.65,1370.59,1560.21,1374,1548.17Z" style="fill:url(#linear-gradient-33)"/><path d="M1365.43,1481.1c0,12.41-5.89,25.66-8.87,27.79a20.5,20.5,0,0,0-4.49,4.9,6.29,6.29,0,0,0-.71,1.47c-2.72,7.82,9.71,17,7.32,20.52-1.75,2.54-10.19-.86-11.2,1.34s6.08,6.33,5,8.8c-.81,1.87-5.13.16-7.86,3-1.35,1.43-1,2.55-2.39,6.91a40.09,40.09,0,0,1-2.84,6.65c-4.29,7.28-16.43,9.94-18.77,7-.65-.81-.09-1.5-.75-4.22a21.83,21.83,0,0,0-2.38-5.45c-2.51-4.17-8.57-7.16-14.69-11.56-11.33-8.16-14.41-15.12-15.33-17.47-.33-.84-.54-1.47-.69-1.92-2.94-9.15-3-22.58,1.16-30.84,6.88-13.84,22.42-7.27,35.13-21,14.68-15.82,5.94-37.44,13.9-39.82C1345.74,1434.63,1365.5,1458.16,1365.43,1481.1Z" style="fill:#26264f"/><path d="M1354.22,1532.86c-3-4.17-8.39-.25-8.42,5.16s5.21,11,10.29,10S1358.31,1538.49,1354.22,1532.86Z" style="fill:url(#linear-gradient-34)"/><path d="M1351.75,1523.82l7,9.18s7.61,11.24,12,5.08c3.63-5,4.57-4.92,4.79-4.71,0,0,0,.1.06.1s-.53-2.51-1.07-4.69a41.1,41.1,0,0,1,6,13c1.52,5.71,3.15,11.83-.07,17.71-.19.34-3.74,6.6-10.37,8.11,0,0-2.61.59-13.63-1.34,0,0,12-8.74,12.23-10.82.5-5.65-7.33-8.7-13.15-20.27A46.75,46.75,0,0,1,1351.75,1523.82Z" style="fill:#26264f"/><path d="M1327.59,2159.19c13.36-26.61-19.39-62,2-102.56,18.17-34.45,51.18-26.73,66.36-58.31,18.33-38.14-21.54-66.65-20.11-124.67,1.7-69.37,61.39-138.81,96.52-132.72,22.72,3.94,25.64,37.85,41.63,75-14.15,31-30.68,69.9-45.65,122.1-18.42,64.16-27.62,96.24-25.14,136.73,3.46,56.4,23.26,89,4,114.62-12,16.05-35,18.63-80.43,23.12-41.28,4.09-109.22,10-185-24.13-9.59-4.31-16.77-7.54-22.63-10.73C1277.56,2195.38,1317,2180.29,1327.59,2159.19Z" style="opacity:0.30000000000000004;mix-blend-mode:multiply;fill:url(#linear-gradient-35)"/><path d="M1675,1832.43l-22.12-9.55c-12.46,12.74-28.36,25.13-41.73,21.11-19.92-6-14.94-42.66-39.21-107.08-27.49-73-58.68-91.74-74.4-98.53-8.77-3.79-14.83-6.3-22.12-4.52-33.51,8.19-44.59,95.52-35.19,160.86,5.3,36.82,15.69,109,74.91,143.28,8.41,4.86,54.71,31.66,100.54,10.55C1654.79,1930.52,1679,1884.26,1675,1832.43Z" style="fill:#0071bc"/></g></g></g></svg>